<svg width="124" height="29" viewBox="0 0 124 29" fill="none" xmlns="http://www.w3.org/2000/svg">
<path d="M118.696 23.0143C119.028 22.4994 119.219 21.9347 119.269 21.3201C119.318 20.7056 119.343 20.0993 119.343 19.5013C118.862 20.1159 118.272 20.5478 117.574 20.7969C116.877 21.0461 116.121 21.1706 115.307 21.1706C114.36 21.1706 113.538 21.0294 112.841 20.7471C112.16 20.4647 111.62 20.0329 111.221 19.4515C110.823 18.92 110.549 18.2971 110.399 17.5829C110.25 16.8521 110.175 16.0631 110.175 15.216V7.84131H113.688V14.7925C113.688 15.241 113.721 15.6811 113.787 16.113C113.87 16.5282 114.037 16.877 114.286 17.1594C114.684 17.7573 115.407 18.0563 116.453 18.0563C116.952 18.0563 117.417 17.9566 117.849 17.7573C118.28 17.5414 118.621 17.2092 118.87 16.7607C119.086 16.3787 119.219 15.9801 119.269 15.5648C119.318 15.133 119.343 14.6679 119.343 14.1696V7.84131H122.881V18.6293C122.881 19.2273 122.873 19.8418 122.856 20.473C122.856 21.0876 122.807 21.6938 122.707 22.2918C122.624 22.8897 122.466 23.4711 122.234 24.0358C122.001 24.6005 121.677 25.1237 121.262 25.6054C120.68 26.2698 119.916 26.8013 118.97 27.2C118.04 27.5986 116.918 27.7896 115.606 27.773C114.643 27.7896 113.688 27.6567 112.741 27.3744C111.794 27.1086 110.922 26.7183 110.125 26.2034L111.246 23.2136C111.678 23.5292 112.251 23.8199 112.965 24.0856C113.696 24.3514 114.551 24.4843 115.531 24.4843C116.329 24.4843 116.977 24.3514 117.475 24.0856C117.99 23.8365 118.397 23.4794 118.696 23.0143Z" fill="#979AA6"/>
<path d="M102.489 18.0564C103.153 18.0564 103.676 17.8986 104.058 17.5831C104.457 17.2675 104.698 16.9104 104.781 16.5117H108.468C108.352 17.3588 108.111 18.073 107.746 18.6544C107.38 19.2357 106.923 19.7174 106.375 20.0994C105.844 20.4815 105.237 20.7555 104.556 20.9216C103.875 21.0877 103.17 21.1708 102.439 21.1708C101.342 21.1708 100.387 21.0213 99.5736 20.7223C98.7763 20.4067 98.1119 19.9583 97.5804 19.3769C97.0489 18.779 96.6419 18.0647 96.3596 17.2343C96.0938 16.3872 95.9609 15.4404 95.9609 14.394C95.9609 13.3808 96.1104 12.4506 96.4094 11.6036C96.7084 10.7565 97.1319 10.0339 97.68 9.43598C98.2448 8.83803 98.9341 8.38126 99.748 8.06568C100.562 7.73348 101.492 7.56738 102.538 7.56738C103.302 7.56738 104.017 7.65874 104.681 7.84144C105.362 8.02415 105.96 8.30652 106.475 8.68854C107.006 9.07057 107.438 9.56055 107.77 10.1585C108.119 10.7398 108.352 11.4375 108.468 12.2513H104.781C104.698 11.8527 104.449 11.4956 104.033 11.18C103.635 10.8644 103.111 10.7066 102.464 10.7066C101.916 10.7066 101.442 10.8063 101.044 11.0056C100.645 11.2049 100.329 11.479 100.097 11.8278C99.8642 12.1766 99.6981 12.5752 99.5985 13.0237C99.4988 13.4721 99.449 13.9455 99.449 14.4438C99.449 14.9753 99.5071 15.4653 99.6234 15.9138C99.7397 16.3456 99.9141 16.7277 100.147 17.0599C100.379 17.3754 100.686 17.6246 101.068 17.8073C101.467 17.9734 101.94 18.0564 102.489 18.0564Z" fill="#979AA6"/>
<path d="M85.2683 9.51057C86.3314 8.23162 87.6435 7.58384 89.2048 7.56723C90.0519 7.55062 90.7994 7.6918 91.4472 7.99078C92.0949 8.27314 92.6182 8.66347 93.0168 9.16177C93.4985 9.74311 93.8307 10.4241 94.0134 11.2048C94.1961 11.9688 94.2874 12.8242 94.2874 13.771V20.9713H90.7496V14.045C90.7496 13.58 90.6997 13.1398 90.6001 12.7246C90.517 12.2927 90.3675 11.9273 90.1516 11.6283C89.9357 11.3127 89.645 11.0802 89.2796 10.9307C88.9308 10.7812 88.5322 10.7065 88.0837 10.7065C87.519 10.7231 87.0373 10.8477 86.6386 11.0802C86.2566 11.3127 85.966 11.6117 85.7666 11.9771C85.5673 12.3259 85.4261 12.7246 85.3431 13.173C85.2766 13.6049 85.2434 14.045 85.2434 14.4935V20.9713H81.7305V7.84129H85.0939L85.2683 9.51057Z" fill="#979AA6"/>
<path d="M73.8269 18.3056C74.3252 18.3056 74.7488 18.2308 75.0976 18.0814C75.463 17.9153 75.762 17.6495 75.9945 17.2841H79.6819C79.4992 17.9651 79.2168 18.5547 78.8348 19.053C78.4694 19.5513 78.0209 19.9583 77.4894 20.2738C76.9745 20.5894 76.4014 20.822 75.7703 20.9714C75.1391 21.1043 74.4747 21.1708 73.7771 21.1708C71.6511 21.1708 70.0399 20.5728 68.9437 19.3769C67.864 18.181 67.3242 16.5034 67.3242 14.3442C67.3242 13.3642 67.4654 12.459 67.7478 11.6285C68.0467 10.798 68.462 10.0838 68.9935 9.48581C69.525 8.87125 70.1811 8.39787 70.9618 8.06568C71.759 7.73348 72.6643 7.56738 73.6774 7.56738C74.8567 7.56738 75.8782 7.77501 76.7419 8.19025C77.6057 8.60549 78.2867 9.17853 78.7849 9.90936C79.2998 10.6236 79.6403 11.4624 79.8064 12.4257C79.9892 13.3891 79.9892 14.4189 79.8064 15.5151H70.8372C70.9036 16.2958 71.1777 16.9602 71.6594 17.5083C72.141 18.0398 72.8636 18.3056 73.8269 18.3056ZM76.5426 13.0984C76.5426 12.6832 76.4679 12.3178 76.3184 12.0022C76.1689 11.67 75.9696 11.4042 75.7204 11.2049C75.4713 10.989 75.1723 10.8312 74.8235 10.7315C74.4913 10.6319 74.1425 10.5821 73.7771 10.5821C72.8968 10.5987 72.2075 10.8395 71.7092 11.3046C71.2275 11.753 70.9451 12.351 70.8621 13.0984H76.5426Z" fill="#979AA6"/>
<path d="M62.027 19.626C61.5287 20.1908 60.9307 20.5894 60.2331 20.8219C59.5355 21.0545 58.7798 21.1707 57.9659 21.1707C57.152 21.1707 56.3547 21.0462 55.5741 20.797C54.81 20.5313 54.1456 20.1077 53.5809 19.5264C52.9497 18.862 52.5096 18.0979 52.2604 17.2342C52.0113 16.3705 51.8867 15.4819 51.8867 14.5684C51.8867 12.4091 52.4847 10.6817 53.6806 9.38613C54.1955 8.8214 54.8599 8.38124 55.6737 8.06565C56.5042 7.75007 57.3928 7.60058 58.3396 7.61719C58.9542 7.58397 59.6186 7.69193 60.3328 7.94108C61.047 8.19023 61.6616 8.60547 62.1765 9.18681L62.5502 7.84142H65.5898V20.1492C65.5898 20.6808 65.5565 21.204 65.4901 21.7189C65.4403 22.2504 65.3489 22.757 65.216 23.2387C65.0832 23.7369 64.8838 24.2103 64.6181 24.6588C64.3191 25.2069 63.9537 25.672 63.5218 26.054C63.1066 26.436 62.6415 26.7516 62.1266 27.0008C61.6117 27.2665 61.0636 27.4575 60.4823 27.5738C59.9009 27.6901 59.3113 27.7482 58.7133 27.7482C57.9493 27.7482 57.2184 27.6568 56.5208 27.4741C55.8232 27.308 55.1838 27.0257 54.6024 26.627C54.0377 26.245 53.5643 25.755 53.1823 25.1571C52.8169 24.5591 52.576 23.8449 52.4598 23.0144H56.1969C56.2634 23.4131 56.5291 23.7702 56.9942 24.0858C57.4593 24.4013 58.024 24.5591 58.6884 24.5591C59.4026 24.5591 59.984 24.4179 60.4324 24.1356C60.8975 23.8532 61.2463 23.4795 61.4788 23.0144C61.7114 22.5494 61.8609 22.0178 61.9273 21.4199C61.9937 20.8219 62.027 20.224 62.027 19.626ZM58.7632 18.0564C59.3113 18.0564 59.793 17.9568 60.2082 17.7574C60.6401 17.5581 60.9889 17.2924 61.2546 16.9602C61.5204 16.6114 61.7197 16.2127 61.8526 15.7643C61.9854 15.2992 62.0519 14.8092 62.0519 14.2943C62.0519 13.2645 61.7612 12.4174 61.1799 11.753C60.6151 11.072 59.8013 10.7232 58.7382 10.7066C58.1901 10.7066 57.7001 10.8063 57.2683 11.0056C56.853 11.2049 56.5042 11.4707 56.2219 11.8028C55.9561 12.135 55.7568 12.5254 55.6239 12.9738C55.491 13.4223 55.4246 13.904 55.4246 14.4189C55.4246 14.967 55.491 15.4653 55.6239 15.9138C55.7734 16.3456 55.9893 16.7276 56.2717 17.0598C56.5541 17.3754 56.9029 17.6246 57.3181 17.8073C57.7333 17.9734 58.215 18.0564 58.7632 18.0564Z" fill="#979AA6"/>
<path d="M46.8725 19.352C46.3742 20.0164 45.7679 20.4898 45.0537 20.7721C44.3395 21.0545 43.509 21.1874 42.5622 21.1708C41.3497 21.1375 40.3365 20.797 39.5226 20.1493C39.0908 19.7839 38.7503 19.352 38.5011 18.8537C38.2686 18.3388 38.1523 17.7325 38.1523 17.0349C38.169 16.3207 38.3267 15.6895 38.6257 15.1414C38.9413 14.5767 39.4147 14.1116 40.0459 13.7462C40.5774 13.4638 41.1753 13.2645 41.8397 13.1483C42.5207 13.032 43.2598 12.9739 44.0571 12.9739H46.7479C46.7977 12.16 46.6067 11.5537 46.1749 11.1551C45.7596 10.7398 45.17 10.5239 44.4059 10.5073C44.1568 10.5073 43.8993 10.5239 43.6336 10.5571C43.3678 10.5904 43.1187 10.6568 42.8861 10.7565C42.6702 10.8561 42.4792 10.9973 42.3131 11.18C42.1636 11.3461 42.0639 11.5537 42.0141 11.8029H38.4015C38.4845 11.0056 38.7005 10.3412 39.0493 9.8097C39.4147 9.26158 39.8715 8.82142 40.4196 8.48922C40.9677 8.15703 41.574 7.92449 42.2383 7.79161C42.9193 7.64213 43.6169 7.56738 44.3312 7.56738C44.7298 7.56738 45.1367 7.5923 45.552 7.64213C45.9672 7.67535 46.3742 7.75839 46.7728 7.89127C47.1714 8.00754 47.5452 8.17364 47.894 8.38957C48.2594 8.58888 48.5999 8.85464 48.9155 9.18683C49.4802 9.83461 49.829 10.5821 49.9619 11.4291C50.1114 12.2596 50.1778 13.0735 50.1612 13.8708V20.9714H46.9472L46.8725 19.352ZM46.7479 15.1663H44.1817C43.9325 15.1663 43.6502 15.1913 43.3346 15.2411C43.019 15.2909 42.7449 15.3823 42.5124 15.5151C42.2799 15.648 42.0805 15.8224 41.9145 16.0384C41.765 16.2543 41.6902 16.52 41.6902 16.8356C41.6902 17.1014 41.74 17.3339 41.8397 17.5332C41.956 17.7325 42.0972 17.8986 42.2633 18.0315C42.446 18.1644 42.6619 18.2724 42.911 18.3554C43.1602 18.4219 43.4093 18.4551 43.6585 18.4551C44.1402 18.4717 44.5886 18.3886 45.0039 18.2059C45.4357 18.0232 45.8094 17.7658 46.125 17.4336C46.3243 17.1678 46.4738 16.8688 46.5735 16.5366C46.6898 16.1878 46.7479 15.7311 46.7479 15.1663Z" fill="#979AA6"/>
<path fill-rule="evenodd" clip-rule="evenodd" d="M28.6134 15.4203C28.4727 17.88 27.6774 20.2628 26.3033 22.3193C24.7824 24.5955 22.6207 26.3696 20.0915 27.4172C17.5623 28.4649 14.7792 28.739 12.0943 28.2049C9.40927 27.6708 6.94296 26.3525 5.0072 24.4168C3.07144 22.481 1.75317 20.0147 1.21909 17.3297C0.685015 14.6447 0.959122 11.8617 2.00675 9.3325C3.05438 6.8033 4.82847 4.64156 7.10468 3.12064C9.16113 1.74657 11.544 0.951304 14.0037 0.810547V7.754C12.9148 7.87926 11.8672 8.2619 10.9496 8.87502C9.81153 9.63547 8.92448 10.7163 8.40067 11.9809C7.87685 13.2455 7.7398 14.6371 8.00684 15.9796C8.27387 17.322 8.93301 18.5552 9.90089 19.5231C10.8688 20.491 12.1019 21.1501 13.4444 21.4171C14.7869 21.6842 16.1784 21.5471 17.443 21.0233C18.7076 20.4995 19.7885 19.6124 20.549 18.4743C21.1621 17.5567 21.5447 16.5092 21.67 15.4203H28.6134Z" fill="#979AA6"/>
<path fill-rule="evenodd" clip-rule="evenodd" d="M21.7078 0.788086H16.0469V7.7088H21.7078V13.3709H28.6285L28.6285 7.7088H28.63V0.788086H27.3625H21.7078Z" fill="#979AA6"/>
</svg>
