<svg width="173" height="38" viewBox="0 0 173 38" fill="none" xmlns="http://www.w3.org/2000/svg">
<path d="M160.762 13.6021H163.846L163.966 15.2165C164.368 14.6061 164.866 14.1402 165.46 13.819C166.071 13.4817 166.745 13.313 167.484 13.313C170.488 13.313 171.982 15.1522 171.966 18.8307V19.4813H171.99V25.6495H168.737V19.4813H168.713C168.713 18.3247 168.512 17.5216 168.111 17.0718C167.725 16.6059 167.163 16.373 166.424 16.373C165.637 16.373 165.035 16.63 164.617 17.1441C164.215 17.642 164.015 18.3649 164.015 19.3126V25.6495H160.762V13.6021Z" fill="#979AA6"/>
<path d="M152.423 25.9387C151.202 25.9387 150.11 25.6736 149.146 25.1435C148.182 24.5974 147.427 23.8505 146.881 22.9027C146.351 21.9389 146.086 20.8466 146.086 19.6258C146.086 18.405 146.351 17.3208 146.881 16.373C147.427 15.4092 148.174 14.6623 149.122 14.1322C150.07 13.5861 151.154 13.313 152.375 13.313C153.595 13.313 154.68 13.5861 155.627 14.1322C156.591 14.6623 157.338 15.4092 157.868 16.373C158.414 17.3208 158.688 18.405 158.688 19.6258C158.688 20.8466 158.422 21.9389 157.892 22.9027C157.362 23.8505 156.615 24.5974 155.652 25.1435C154.704 25.6736 153.628 25.9387 152.423 25.9387ZM149.435 19.6258C149.435 20.6057 149.708 21.4088 150.254 22.0353C150.817 22.6457 151.539 22.9509 152.423 22.9509C153.29 22.9509 153.997 22.6457 154.543 22.0353C155.089 21.4088 155.362 20.6057 155.362 19.6258C155.362 18.646 155.081 17.8508 154.519 17.2404C153.973 16.614 153.258 16.3007 152.375 16.3007C151.523 16.3007 150.817 16.614 150.254 17.2404C149.708 17.8508 149.435 18.646 149.435 19.6258Z" fill="#979AA6"/>
<path d="M140.577 13.6021H143.83V25.6495H140.577V13.6021ZM142.215 11.6986C141.701 11.6986 141.26 11.5138 140.89 11.1444C140.521 10.7749 140.336 10.3412 140.336 9.84326C140.336 9.32924 140.521 8.8875 140.89 8.51805C141.276 8.14859 141.717 7.96387 142.215 7.96387C142.713 7.96387 143.147 8.14859 143.516 8.51805C143.886 8.8875 144.071 9.32924 144.071 9.84326C144.071 10.3412 143.886 10.7749 143.516 11.1444C143.163 11.5138 142.729 11.6986 142.215 11.6986Z" fill="#979AA6"/>
<path d="M135.653 25.9386C134.319 25.9386 133.299 25.6093 132.593 24.9507C131.902 24.2921 131.556 23.3444 131.556 22.1075V16.3489H129.629V13.6021H131.556V9.84326H134.809V13.6021H137.797V16.3489H134.809V21.3847C134.809 21.9148 134.914 22.3083 135.123 22.5653C135.347 22.8063 135.685 22.9268 136.135 22.9268C136.456 22.9268 136.817 22.7822 137.219 22.493L138.375 24.9266C137.974 25.2318 137.532 25.4728 137.05 25.6495C136.568 25.8422 136.102 25.9386 135.653 25.9386Z" fill="#979AA6"/>
<path d="M125 24.2761C124.325 25.3845 123.217 25.9387 121.675 25.9387C120.229 25.9387 119.105 25.6174 118.302 24.9749C117.515 24.3324 117.121 23.4248 117.121 22.2522C117.121 20.9832 117.547 20.0194 118.398 19.3608C119.249 18.7022 120.454 18.3729 122.012 18.3729H124.88C124.655 16.879 123.924 16.1321 122.687 16.1321C121.627 16.1321 120.824 16.5819 120.278 17.4814L117.41 16.4935C117.796 15.594 118.422 14.839 119.29 14.2286C120.173 13.6182 121.306 13.313 122.687 13.313C124.486 13.313 125.851 13.819 126.783 14.831C127.715 15.8269 128.165 17.2083 128.132 18.9753L128.084 25.6495H125.048L125 24.2761ZM120.446 22.1558C120.446 22.4931 120.607 22.7662 120.928 22.975C121.249 23.1678 121.691 23.2642 122.253 23.2642C122.751 23.2642 123.201 23.1437 123.603 22.9027C124.02 22.6618 124.35 22.3485 124.59 21.963C124.831 21.5775 124.952 21.1759 124.952 20.7583H123.169C122.189 20.7583 121.49 20.8788 121.073 21.1197C120.655 21.3446 120.446 21.69 120.446 22.1558Z" fill="#979AA6"/>
<path d="M110.45 25.9387C109.197 25.9387 108.081 25.6736 107.101 25.1435C106.121 24.5974 105.35 23.8505 104.788 22.9027C104.242 21.9389 103.969 20.8466 103.969 19.6258C103.969 18.405 104.242 17.3208 104.788 16.373C105.334 15.4092 106.097 14.6623 107.077 14.1322C108.057 13.5861 109.165 13.313 110.402 13.313C111.639 13.313 112.747 13.6182 113.727 14.2286C114.723 14.839 115.446 15.6984 115.896 16.8067L112.836 17.891C112.611 17.4252 112.265 17.0557 111.8 16.7826C111.334 16.5096 110.82 16.373 110.258 16.373C109.39 16.373 108.683 16.6782 108.137 17.2886C107.591 17.883 107.318 18.662 107.318 19.6258C107.318 20.5736 107.591 21.3526 108.137 21.963C108.699 22.5734 109.422 22.8786 110.306 22.8786C110.868 22.8786 111.382 22.7341 111.848 22.4449C112.314 22.1397 112.659 21.7381 112.884 21.2402L115.968 22.3245C115.502 23.4649 114.779 24.3564 113.799 24.999C112.82 25.6254 111.703 25.9387 110.45 25.9387Z" fill="#979AA6"/>
<path d="M98.4558 13.6021H101.709V25.6495H98.4558V13.6021ZM100.094 11.6986C99.5802 11.6986 99.1385 11.5138 98.769 11.1444C98.3996 10.7749 98.2148 10.3412 98.2148 9.84326C98.2148 9.32924 98.3996 8.8875 98.769 8.51805C99.1545 8.14859 99.5963 7.96387 100.094 7.96387C100.592 7.96387 101.026 8.14859 101.395 8.51805C101.765 8.8875 101.95 9.32924 101.95 9.84326C101.95 10.3412 101.765 10.7749 101.395 11.1444C101.042 11.5138 100.608 11.6986 100.094 11.6986Z" fill="#979AA6"/>
<path d="M92.2852 8.30127H95.538V25.6495H92.2852V8.30127Z" fill="#979AA6"/>
<path d="M77.9375 13.6021H81.0216L81.1421 15.2647C81.5437 14.6382 82.0497 14.1563 82.6601 13.819C83.2866 13.4817 84.0014 13.313 84.8045 13.313C85.8968 13.313 86.8526 13.57 87.6718 14.084C88.5071 14.598 89.1416 15.3289 89.5753 16.2767C90.0251 17.2244 90.25 18.3408 90.25 19.6258C90.25 20.8948 90.0251 22.0112 89.5753 22.975C89.1416 23.9227 88.5071 24.6536 87.6718 25.1676C86.8526 25.6817 85.8968 25.9387 84.8045 25.9387C84.0174 25.9387 83.3187 25.778 82.7083 25.4568C82.0979 25.1195 81.5919 24.6456 81.1903 24.0352V30.4685H77.9375V13.6021ZM81.1903 19.6258C81.1903 20.6057 81.4473 21.4089 81.9613 22.0353C82.4914 22.6457 83.1661 22.9509 83.9853 22.9509C84.8206 22.9509 85.5113 22.6377 86.0575 22.0112C86.6036 21.3848 86.8767 20.5896 86.8767 19.6258C86.8767 18.662 86.6036 17.8749 86.0575 17.2645C85.5274 16.6381 84.8447 16.3248 84.0094 16.3248C83.1741 16.3248 82.4914 16.63 81.9613 17.2404C81.4473 17.8508 81.1903 18.646 81.1903 19.6258Z" fill="#979AA6"/>
<path d="M63.4648 13.6021H66.549L66.6695 15.2647C67.071 14.6382 67.577 14.1563 68.1874 13.819C68.8139 13.4817 69.5287 13.313 70.3319 13.313C71.4242 13.313 72.3799 13.57 73.1992 14.084C74.0344 14.598 74.6689 15.3289 75.1026 16.2767C75.5524 17.2244 75.7773 18.3408 75.7773 19.6258C75.7773 20.8948 75.5524 22.0112 75.1026 22.975C74.6689 23.9227 74.0344 24.6536 73.1992 25.1676C72.3799 25.6817 71.4242 25.9387 70.3319 25.9387C69.5448 25.9387 68.846 25.778 68.2356 25.4568C67.6252 25.1195 67.1192 24.6456 66.7176 24.0352V30.4685H63.4648V13.6021ZM66.7176 19.6258C66.7176 20.6057 66.9747 21.4089 67.4887 22.0353C68.0188 22.6457 68.6934 22.9509 69.5126 22.9509C70.3479 22.9509 71.0387 22.6377 71.5848 22.0112C72.131 21.3848 72.404 20.5896 72.404 19.6258C72.404 18.662 72.131 17.8749 71.5848 17.2645C71.0547 16.6381 70.372 16.3248 69.5367 16.3248C68.7015 16.3248 68.0188 16.63 67.4887 17.2404C66.9747 17.8508 66.7176 18.646 66.7176 19.6258Z" fill="#979AA6"/>
<path d="M57.7032 24.2761C57.0286 25.3845 55.9202 25.9387 54.3781 25.9387C52.9325 25.9387 51.808 25.6174 51.0049 24.9749C50.2178 24.3324 49.8242 23.4248 49.8242 22.2522C49.8242 20.9832 50.2499 20.0194 51.1012 19.3608C51.9526 18.7022 53.1573 18.3729 54.7155 18.3729H57.5828C57.3579 16.879 56.627 16.1321 55.3901 16.1321C54.33 16.1321 53.5268 16.5819 52.9806 17.4814L50.1134 16.4935C50.4989 15.594 51.1253 14.839 51.9928 14.2286C52.8762 13.6182 54.0087 13.313 55.3901 13.313C57.1892 13.313 58.5546 13.819 59.4862 14.831C60.4179 15.8269 60.8677 17.2083 60.8356 18.9753L60.7874 25.6495H57.7514L57.7032 24.2761ZM53.1493 22.1558C53.1493 22.4931 53.3099 22.7662 53.6312 22.975C53.9525 23.1678 54.3942 23.2642 54.9564 23.2642C55.4544 23.2642 55.9041 23.1437 56.3057 22.9027C56.7234 22.6618 57.0527 22.3485 57.2936 21.963C57.5346 21.5775 57.655 21.1759 57.655 20.7583H55.872C54.8922 20.7583 54.1934 20.8788 53.7758 21.1197C53.3581 21.3446 53.1493 21.69 53.1493 22.1558Z" fill="#979AA6"/>
<path fill-rule="evenodd" clip-rule="evenodd" d="M17.0642 30.5094H9.28164C4.69919 30.5094 0.984375 26.7946 0.984375 22.2122C0.984375 18.171 4.0642 14.8492 8.00472 14.4658C8.28256 10.4197 11.6528 7.22363 15.7695 7.22363H16.0265C18.2409 7.22363 20.2463 8.11888 21.7004 9.56719C23.6499 8.09599 26.0767 7.22363 28.7072 7.22363H29.2917C35.3991 7.22363 40.3501 12.1746 40.3501 18.282C40.3501 25.035 34.8756 30.5095 28.1226 30.5095H17.0642V30.5094Z" fill="#979AA6"/>
</svg>
