<svg width="146" height="31" viewBox="0 0 146 31" fill="none" xmlns="http://www.w3.org/2000/svg">
<path d="M144.167 14.9677L140.716 15.18C140.657 14.8851 140.53 14.6197 140.336 14.3838C140.141 14.1419 139.884 13.9502 139.566 13.8087C139.253 13.6612 138.879 13.5875 138.442 13.5875C137.858 13.5875 137.366 13.7113 136.965 13.9591C136.564 14.2009 136.363 14.5253 136.363 14.9323C136.363 15.2567 136.493 15.531 136.752 15.7551C137.012 15.9793 137.457 16.1592 138.088 16.2948L140.548 16.7903C141.869 17.0616 142.854 17.4981 143.503 18.0997C144.152 18.7013 144.476 19.4917 144.476 20.4708C144.476 21.3615 144.214 22.143 143.689 22.8154C143.17 23.4879 142.456 24.0128 141.548 24.3903C140.645 24.7619 139.604 24.9477 138.425 24.9477C136.626 24.9477 135.192 24.5731 134.125 23.8241C133.063 23.0691 132.441 22.0428 132.258 20.7451L135.965 20.5505C136.077 21.099 136.348 21.5178 136.779 21.8068C137.209 22.0899 137.761 22.2315 138.433 22.2315C139.094 22.2315 139.625 22.1047 140.026 21.8511C140.433 21.5915 140.639 21.2583 140.645 20.8513C140.639 20.5092 140.495 20.229 140.212 20.0108C139.929 19.7866 139.492 19.6156 138.902 19.4976L136.549 19.0287C135.222 18.7633 134.234 18.3032 133.585 17.6485C132.942 16.9938 132.621 16.1592 132.621 15.1446C132.621 14.2717 132.856 13.5196 133.328 12.8885C133.806 12.2574 134.476 11.7708 135.337 11.4287C136.204 11.0866 137.218 10.9155 138.38 10.9155C140.097 10.9155 141.447 11.2783 142.432 12.0038C143.423 12.7293 144.001 13.7172 144.167 14.9677Z" fill="#979AA6"/>
<path d="M130.174 14.9677L126.724 15.18C126.665 14.8851 126.538 14.6197 126.343 14.3838C126.149 14.1419 125.892 13.9502 125.574 13.8087C125.261 13.6612 124.887 13.5875 124.45 13.5875C123.866 13.5875 123.374 13.7113 122.973 13.9591C122.571 14.2009 122.371 14.5253 122.371 14.9323C122.371 15.2567 122.501 15.531 122.76 15.7551C123.02 15.9793 123.465 16.1592 124.096 16.2948L126.556 16.7903C127.877 17.0616 128.862 17.4981 129.511 18.0997C130.16 18.7013 130.484 19.4917 130.484 20.4708C130.484 21.3615 130.222 22.143 129.697 22.8154C129.178 23.4879 128.464 24.0128 127.556 24.3903C126.653 24.7619 125.612 24.9477 124.432 24.9477C122.633 24.9477 121.2 24.5731 120.132 23.8241C119.071 23.0691 118.448 22.0428 118.266 20.7451L121.973 20.5505C122.085 21.099 122.356 21.5178 122.787 21.8068C123.217 22.0899 123.769 22.2315 124.441 22.2315C125.102 22.2315 125.633 22.1047 126.034 21.8511C126.441 21.5915 126.647 21.2583 126.653 20.8513C126.647 20.5092 126.503 20.229 126.22 20.0108C125.936 19.7866 125.5 19.6156 124.91 19.4976L122.557 19.0287C121.23 18.7633 120.242 18.3032 119.593 17.6485C118.95 16.9938 118.628 16.1592 118.628 15.1446C118.628 14.2717 118.864 13.5196 119.336 12.8885C119.814 12.2574 120.483 11.7708 121.345 11.4287C122.212 11.0866 123.226 10.9155 124.388 10.9155C126.105 10.9155 127.455 11.2783 128.44 12.0038C129.431 12.7293 130.009 13.7172 130.174 14.9677Z" fill="#979AA6"/>
<path d="M110.171 24.9477C108.774 24.9477 107.57 24.6646 106.562 24.0983C105.559 23.5262 104.786 22.7181 104.244 21.6741C103.701 20.6242 103.43 19.3826 103.43 17.9493C103.43 16.5514 103.701 15.3245 104.244 14.2687C104.786 13.2129 105.55 12.3901 106.535 11.8003C107.526 11.2104 108.688 10.9155 110.021 10.9155C110.918 10.9155 111.752 11.06 112.525 11.3491C113.304 11.6322 113.982 12.0598 114.56 12.6319C115.144 13.2041 115.598 13.9237 115.922 14.7907C116.247 15.6519 116.409 16.6605 116.409 17.8166V18.8518H104.934V16.516H112.861C112.861 15.9734 112.743 15.4926 112.507 15.0739C112.271 14.6551 111.944 14.3277 111.525 14.0918C111.112 13.85 110.632 13.729 110.083 13.729C109.511 13.729 109.004 13.8618 108.561 14.1272C108.125 14.3867 107.783 14.7377 107.535 15.18C107.287 15.6165 107.16 16.1031 107.154 16.6399V18.8606C107.154 19.533 107.278 20.114 107.526 20.6036C107.78 21.0931 108.137 21.4706 108.597 21.736C109.057 22.0015 109.602 22.1342 110.233 22.1342C110.652 22.1342 111.036 22.0752 111.384 21.9572C111.732 21.8393 112.029 21.6623 112.277 21.4264C112.525 21.1904 112.714 20.9014 112.843 20.5593L116.329 20.7894C116.152 21.6269 115.79 22.3583 115.241 22.9835C114.698 23.6029 113.997 24.0865 113.135 24.4345C112.28 24.7766 111.292 24.9477 110.171 24.9477Z" fill="#979AA6"/>
<path d="M92.2495 16.8257V24.6823H88.4805V11.0925H92.0726V13.4902H92.2318C92.5326 12.6998 93.0369 12.0746 93.7447 11.6145C94.4525 11.1485 95.3108 10.9155 96.3194 10.9155C97.2631 10.9155 98.0859 11.122 98.7878 11.5349C99.4897 11.9477 100.035 12.5376 100.425 13.3044C100.814 14.0652 101.009 14.9736 101.009 16.0294V24.6823H97.2395V16.7018C97.2454 15.8701 97.0331 15.2213 96.6025 14.7554C96.1719 14.2835 95.5791 14.0475 94.8241 14.0475C94.3169 14.0475 93.8686 14.1567 93.4793 14.3749C93.0959 14.5931 92.7951 14.9117 92.5769 15.3304C92.3645 15.7433 92.2554 16.2417 92.2495 16.8257Z" fill="#979AA6"/>
<path d="M81.6884 24.6822V11.0924H85.4575V24.6822H81.6884ZM83.5818 9.34063C83.0215 9.34063 82.5407 9.15483 82.1397 8.78323C81.7445 8.40574 81.5469 7.95451 81.5469 7.42956C81.5469 6.91051 81.7445 6.46518 82.1397 6.09359C82.5407 5.71609 83.0215 5.52734 83.5818 5.52734C84.1421 5.52734 84.6199 5.71609 85.0151 6.09359C85.4162 6.46518 85.6167 6.91051 85.6167 7.42956C85.6167 7.95451 85.4162 8.40574 85.0151 8.78323C84.6199 9.15483 84.1421 9.34063 83.5818 9.34063Z" fill="#979AA6"/>
<path d="M79.0064 14.9677L75.5559 15.18C75.4969 14.8851 75.3701 14.6197 75.1754 14.3838C74.9808 14.1419 74.7242 13.9502 74.4057 13.8087C74.0931 13.6612 73.7186 13.5875 73.2821 13.5875C72.6981 13.5875 72.2056 13.7113 71.8045 13.9591C71.4034 14.2009 71.2029 14.5253 71.2029 14.9323C71.2029 15.2567 71.3327 15.531 71.5922 15.7551C71.8517 15.9793 72.297 16.1592 72.9282 16.2948L75.3878 16.7903C76.709 17.0616 77.694 17.4981 78.3429 18.0997C78.9917 18.7013 79.3161 19.4917 79.3161 20.4708C79.3161 21.3615 79.0536 22.143 78.5287 22.8154C78.0096 23.4879 77.2959 24.0128 76.3876 24.3903C75.4851 24.7619 74.444 24.9477 73.2644 24.9477C71.4654 24.9477 70.0321 24.5731 68.9645 23.8241C67.9028 23.0691 67.2805 22.0428 67.0977 20.7451L70.8048 20.5505C70.9168 21.099 71.1882 21.5178 71.6187 21.8068C72.0493 22.0899 72.6008 22.2315 73.2732 22.2315C73.9338 22.2315 74.4647 22.1047 74.8658 21.8511C75.2728 21.5915 75.4792 21.2583 75.4851 20.8513C75.4792 20.5092 75.3347 20.229 75.0516 20.0108C74.7685 19.7866 74.332 19.6156 73.7421 19.4976L71.3887 19.0287C70.0616 18.7633 69.0736 18.3032 68.4248 17.6485C67.7819 16.9938 67.4604 16.1592 67.4604 15.1446C67.4604 14.2717 67.6963 13.5196 68.1682 12.8885C68.646 12.2574 69.3154 11.7708 70.1766 11.4287C71.0437 11.0866 72.0582 10.9155 73.2201 10.9155C74.9366 10.9155 76.2873 11.2783 77.2723 12.0038C78.2632 12.7293 78.8413 13.7172 79.0064 14.9677Z" fill="#979AA6"/>
<path d="M60.9179 18.8958V11.0923H64.687V24.6821H61.0683V22.2136H60.9268C60.6201 23.0099 60.1099 23.6499 59.3962 24.1335C58.6884 24.6172 57.8242 24.859 56.8038 24.859C55.8955 24.859 55.0963 24.6526 54.4062 24.2397C53.7161 23.8268 53.1764 23.2399 52.7871 22.479C52.4037 21.7182 52.209 20.8069 52.2031 19.7452V11.0923H55.9722V19.0727C55.9781 19.8749 56.1934 20.509 56.618 20.975C57.0427 21.4409 57.6119 21.6739 58.3256 21.6739C58.7798 21.6739 59.2045 21.5707 59.5997 21.3643C59.9948 21.1519 60.3134 20.8393 60.5552 20.4264C60.8029 20.0135 60.9238 19.5033 60.9179 18.8958Z" fill="#979AA6"/>
<path d="M36.4336 24.6822V6.5625H40.2026V13.3751H40.3177C40.4828 13.0094 40.7217 12.6378 41.0343 12.2603C41.3528 11.8769 41.7657 11.5584 42.273 11.3048C42.7861 11.0452 43.4231 10.9155 44.184 10.9155C45.1749 10.9155 46.0892 11.175 46.9268 11.6941C47.7643 12.2072 48.4338 12.9829 48.9351 14.021C49.4365 15.0532 49.6872 16.3479 49.6872 17.905C49.6872 19.4209 49.4424 20.7008 48.9528 21.7448C48.4692 22.783 47.8086 23.5704 46.971 24.1071C46.1393 24.638 45.2074 24.9034 44.1752 24.9034C43.4438 24.9034 42.8215 24.7825 42.3083 24.5407C41.8011 24.2988 41.3853 23.9951 41.0608 23.6294C40.7364 23.2578 40.4887 22.8832 40.3177 22.5057H40.1496V24.6822H36.4336ZM40.123 17.8873C40.123 18.6954 40.2351 19.4002 40.4592 20.0019C40.6834 20.6035 41.0078 21.0724 41.4324 21.4086C41.8571 21.7389 42.3732 21.9041 42.9808 21.9041C43.5942 21.9041 44.1132 21.736 44.5379 21.3998C44.9626 21.0577 45.2841 20.5858 45.5023 19.9842C45.7264 19.3767 45.8385 18.6777 45.8385 17.8873C45.8385 17.1028 45.7294 16.4127 45.5111 15.817C45.2929 15.2213 44.9715 14.7553 44.5468 14.4191C44.1221 14.0829 43.6001 13.9148 42.9808 13.9148C42.3673 13.9148 41.8483 14.077 41.4236 14.4014C41.0048 14.7258 40.6834 15.1859 40.4592 15.7816C40.2351 16.3773 40.123 17.0793 40.123 17.8873Z" fill="#979AA6"/>
<path fill-rule="evenodd" clip-rule="evenodd" d="M14.9059 11.4799L18.983 15.557L15.101 19.439L11.0239 15.3619L14.9059 11.4799ZM10.7258 7.29977L8.16959 4.74361C8.02378 4.5978 8.02378 4.3614 8.16959 4.21559L11.8217 0.563457C11.9675 0.41765 12.2039 0.41765 12.3497 0.563457L24.8352 13.0489C26.2204 14.4341 26.2204 16.6799 24.8352 18.0651L19.2811 23.6191L21.8373 26.1753C21.9831 26.3211 21.9831 26.5575 21.8373 26.7033L18.1852 30.3555C18.0393 30.5013 17.8029 30.5013 17.6571 30.3555L5.1717 17.87C3.78652 16.4848 3.78652 14.239 5.1717 12.8538L10.7258 7.29977Z" fill="#979AA6"/>
</svg>
