<svg width="33" height="33" viewBox="0 0 33 33" fill="none" xmlns="http://www.w3.org/2000/svg">
<path d="M2.92139 1.59082C2.92139 1.03854 2.47367 0.59082 1.92139 0.59082C1.3691 0.59082 0.921387 1.03854 0.921387 1.59082H2.92139ZM31.9214 32.5908C32.4737 32.5908 32.9214 32.1431 32.9214 31.5908C32.9214 31.0385 32.4737 30.5908 31.9214 30.5908V32.5908ZM22.1714 11.0908C21.6191 11.0908 21.1714 11.5385 21.1714 12.0908C21.1714 12.6431 21.6191 13.0908 22.1714 13.0908V11.0908ZM26.336 12.92L25.4415 13.3672L25.4415 13.3672L26.336 12.92ZM26.527 15.538C26.7739 16.032 27.3746 16.2322 27.8686 15.9852C28.3626 15.7383 28.5628 15.1376 28.3158 14.6436L26.527 15.538ZM26.0077 13.3891L26.556 12.5528L24.8833 11.4563L24.3351 12.2926L26.0077 13.3891ZM21.068 19.1001L20.2317 18.5518L20.2317 18.5518L21.068 19.1001ZM18.5303 19.0545L17.6749 19.5723L17.6749 19.5723L18.5303 19.0545ZM15.6681 14.3259L14.8126 14.8437L14.8126 14.8437L15.6681 14.3259ZM13.0671 14.3861L12.1885 13.9084L13.0671 14.3861ZM8.54286 20.6131C8.27904 21.0983 8.45849 21.7055 8.94369 21.9693C9.42889 22.2332 10.0361 22.0537 10.2999 21.5685L8.54286 20.6131ZM0.921387 1.59082V25.5908H2.92139V1.59082H0.921387ZM7.92139 32.5908H31.9214V30.5908H7.92139V32.5908ZM0.921387 25.5908C0.921387 29.4568 4.05539 32.5908 7.92139 32.5908V30.5908C5.15996 30.5908 2.92139 28.3522 2.92139 25.5908H0.921387ZM22.1714 13.0908H24.9943V11.0908H22.1714V13.0908ZM25.4415 13.3672L26.527 15.538L28.3158 14.6436L27.2304 12.4728L25.4415 13.3672ZM24.9943 13.0908C25.1837 13.0908 25.3569 13.1978 25.4415 13.3672L27.2304 12.4728C26.8069 11.6258 25.9413 11.0908 24.9943 11.0908V13.0908ZM24.3351 12.2926L20.2317 18.5518L21.9043 19.6484L26.0077 13.3891L24.3351 12.2926ZM19.3858 18.5366L16.5235 13.8081L14.8126 14.8437L17.6749 19.5723L19.3858 18.5366ZM12.1885 13.9084L8.54286 20.6131L10.2999 21.5685L13.9456 14.8638L12.1885 13.9084ZM16.5235 13.8081C15.5242 12.1571 13.1104 12.213 12.1885 13.9084L13.9456 14.8638C14.13 14.5247 14.6127 14.5136 14.8126 14.8437L16.5235 13.8081ZM20.2317 18.5518C20.03 18.8595 19.5763 18.8514 19.3858 18.5366L17.6749 19.5723C18.6274 21.1459 20.8958 21.1867 21.9043 19.6484L20.2317 18.5518Z" fill="#36383F"/>
</svg>
