<svg width="155" height="32" viewBox="0 0 155 32" fill="none" xmlns="http://www.w3.org/2000/svg">
<path d="M148.913 10.4951H152.543L147.756 23.6445C146.389 27.4315 144.153 29.0883 140.813 28.9042V25.7484C142.681 25.7747 143.627 24.9857 144.258 23.2237L138.867 10.4951H142.575L145.994 19.3315L148.913 10.4951Z" fill="#979AA6"/>
<path d="M132.756 10.127C135.544 10.127 137.727 12.0731 137.727 15.5708V23.6445H134.334V15.9916C134.334 14.2033 133.256 13.2828 131.731 13.2828C130.074 13.2828 128.838 14.2559 128.838 16.5439V23.6445H125.445V10.4951H128.838V11.9679C129.627 10.7844 130.994 10.127 132.756 10.127Z" fill="#979AA6"/>
<path d="M118.978 10.4951H122.371V23.6445H118.978V22.0929C118.031 23.2763 116.611 24.0127 114.691 24.0127C111.194 24.0127 108.301 20.9883 108.301 17.0698C108.301 13.1513 111.194 10.127 114.691 10.127C116.611 10.127 118.031 10.8633 118.978 12.0468V10.4951ZM115.323 20.778C117.426 20.778 118.978 19.2789 118.978 17.0698C118.978 14.8607 117.426 13.3617 115.323 13.3617C113.245 13.3617 111.693 14.8607 111.693 17.0698C111.693 19.2789 113.245 20.778 115.323 20.778Z" fill="#979AA6"/>
<path d="M100.172 10.127C103.697 10.127 106.589 13.1513 106.589 17.0698C106.589 20.9883 103.697 24.0127 100.172 24.0127C98.2527 24.0127 96.8588 23.3026 95.9121 22.0929V28.9043H92.5195V10.4951H95.9121V12.0468C96.8588 10.837 98.2527 10.127 100.172 10.127ZM99.5413 20.778C101.645 20.778 103.197 19.2789 103.197 17.0698C103.197 14.8607 101.645 13.3617 99.5413 13.3617C97.4637 13.3617 95.9121 14.8607 95.9121 17.0698C95.9121 19.2789 97.4637 20.778 99.5413 20.778Z" fill="#979AA6"/>
<path d="M84.6682 10.127C87.6663 10.127 89.6387 12.2572 89.6387 15.5445V23.6445H86.2461V15.7812C86.2461 14.2296 85.4572 13.2828 84.037 13.2828C82.538 13.2828 81.5913 14.2822 81.5913 16.2546V23.6445H78.1987V15.7812C78.1987 14.2296 77.4098 13.2828 75.9896 13.2828C74.5432 13.2828 73.5175 14.2822 73.5175 16.2546V23.6445H70.125V10.4951H73.5175V11.889C74.2539 10.7844 75.4899 10.127 77.1731 10.127C78.8036 10.127 80.0133 10.8107 80.7497 12.0205C81.565 10.837 82.8799 10.127 84.6682 10.127Z" fill="#979AA6"/>
<path d="M60.7671 24.0127C56.9012 24.0127 53.8242 20.9883 53.8242 17.0698C53.8242 13.1513 56.9012 10.127 60.7671 10.127C64.633 10.127 67.7363 13.1513 67.7363 17.0698C67.7363 20.9883 64.633 24.0127 60.7671 24.0127ZM60.7671 20.6991C62.7921 20.6991 64.3437 19.2 64.3437 17.0698C64.3437 14.9396 62.7921 13.4406 60.7671 13.4406C58.7684 13.4406 57.2168 14.9396 57.2168 17.0698C57.2168 19.2 58.7684 20.6991 60.7671 20.6991Z" fill="#979AA6"/>
<path d="M46.978 24.0127C42.9806 24.0127 40.0352 20.9883 40.0352 17.0698C40.0352 13.1513 42.9806 10.127 46.978 10.127C49.5553 10.127 51.7907 11.4945 52.869 13.5195L49.9498 15.2289C49.4238 14.1507 48.293 13.4669 46.9517 13.4669C44.9267 13.4669 43.4277 14.9659 43.4277 17.0698C43.4277 19.1474 44.9267 20.6465 46.9517 20.6465C48.3193 20.6465 49.4501 19.989 49.9761 18.9107L52.9215 20.5939C51.7907 22.6452 49.5553 24.0127 46.978 24.0127Z" fill="#979AA6"/>
<path fill-rule="evenodd" clip-rule="evenodd" d="M11.0847 3.28271C9.94998 3.28271 9.03014 4.20256 9.03014 5.33725V11.7545H2.49594C1.36125 11.7545 0.441406 12.6744 0.441406 13.8091V28.9572C0.441406 30.0919 1.36125 31.0117 2.49594 31.0117H17.4641C18.5988 31.0117 19.5187 30.0919 19.5187 28.9572V22.5399H26.0528C27.1875 22.5399 28.1074 21.6201 28.1074 20.4854V5.33725C28.1074 4.20256 27.1875 3.28271 26.0529 3.28271H11.0847ZM19.5187 22.5399V13.8091C19.5187 12.6744 18.5988 11.7545 17.4641 11.7545H9.03014V20.4854C9.03014 21.6201 9.94998 22.5399 11.0847 22.5399H19.5187Z" fill="#979AA6"/>
</svg>
