<svg width="53" height="53" viewBox="0 0 53 53" fill="none" xmlns="http://www.w3.org/2000/svg">
<g clip-path="url(#clip0_4323_25734)">
<path fill-rule="evenodd" clip-rule="evenodd" d="M44.8231 15.2325C48.8037 15.2325 52.0306 12.0056 52.0306 8.02506C52.0306 4.0445 48.8037 0.817627 44.8231 0.817627C40.8426 0.817627 37.6157 4.0445 37.6157 8.02506C37.6157 12.0056 40.8426 15.2325 44.8231 15.2325Z" fill="#8055FA"/>
<path fill-rule="evenodd" clip-rule="evenodd" d="M44.8228 33.3348C48.8033 33.3348 52.0302 30.1081 52.0302 26.1276C52.0302 22.1472 48.8033 18.9204 44.8228 18.9204C40.8422 18.9204 37.6154 22.1472 37.6154 26.1276C37.6154 30.1081 40.8422 33.3348 44.8228 33.3348Z" fill="#7550FB"/>
<path fill-rule="evenodd" clip-rule="evenodd" d="M44.8228 52.1085C48.8033 52.1085 52.0302 48.8816 52.0302 44.901C52.0302 40.9205 48.8033 37.6936 44.8228 37.6936C40.8422 37.6936 37.6154 40.9205 37.6154 44.901C37.6154 48.8816 40.8422 52.1085 44.8228 52.1085Z" fill="#6A4AFC"/>
<path fill-rule="evenodd" clip-rule="evenodd" d="M26.0504 33.3348C30.0308 33.3348 33.2576 30.1081 33.2576 26.1276C33.2576 22.1472 30.0308 18.9204 26.0504 18.9204C22.07 18.9204 18.8432 22.1472 18.8432 26.1276C18.8432 30.1081 22.07 33.3348 26.0504 33.3348Z" fill="#6045FD"/>
<path fill-rule="evenodd" clip-rule="evenodd" d="M26.0501 52.1085C30.0306 52.1085 33.2573 48.8816 33.2573 44.901C33.2573 40.9205 30.0306 37.6936 26.0501 37.6936C22.0697 37.6936 18.8429 40.9205 18.8429 44.901C18.8429 48.8816 22.0697 52.1085 26.0501 52.1085Z" fill="#553FFE"/>
<path fill-rule="evenodd" clip-rule="evenodd" d="M7.94732 52.1085C11.9279 52.1085 15.1547 48.8816 15.1547 44.901C15.1547 40.9205 11.9279 37.6936 7.94732 37.6936C3.96677 37.6936 0.739891 40.9205 0.739891 44.901C0.739891 48.8816 3.96677 52.1085 7.94732 52.1085Z" fill="#4A3AFF"/>
</g>
<defs>
<clipPath id="clip0_4323_25734">
<rect width="52" height="52" fill="white" transform="translate(0.6745 0.188477)"/>
</clipPath>
</defs>
</svg>
