<svg width="36" height="37" viewBox="0 0 36 37" fill="none" xmlns="http://www.w3.org/2000/svg">
<path d="M18 18.9502H17C17 19.3806 17.2754 19.7628 17.6838 19.8989L18 18.9502ZM19 11.4502C19 10.8979 18.5523 10.4502 18 10.4502C17.4477 10.4502 17 10.8979 17 11.4502H19ZM22.1838 21.3989C22.7077 21.5735 23.274 21.2904 23.4487 20.7664C23.6233 20.2425 23.3402 19.6762 22.8162 19.5015L22.1838 21.3989ZM19 18.9502V11.4502H17V18.9502H19ZM17.6838 19.8989L22.1838 21.3989L22.8162 19.5015L18.3162 18.0015L17.6838 19.8989ZM32 18.9502C32 26.6822 25.732 32.9502 18 32.9502V34.9502C26.8366 34.9502 34 27.7868 34 18.9502H32ZM18 32.9502C10.268 32.9502 4 26.6822 4 18.9502H2C2 27.7868 9.16344 34.9502 18 34.9502V32.9502ZM4 18.9502C4 11.2182 10.268 4.9502 18 4.9502V2.9502C9.16344 2.9502 2 10.1136 2 18.9502H4ZM18 4.9502C25.732 4.9502 32 11.2182 32 18.9502H34C34 10.1136 26.8366 2.9502 18 2.9502V4.9502Z" fill="#36383F"/>
</svg>
