<svg width="37" height="37" viewBox="0 0 37 37" fill="none" xmlns="http://www.w3.org/2000/svg">
<path d="M33.4702 18.4639C33.4702 14.4383 31.8845 10.7831 29.3035 8.08892M33.4702 18.4639C33.4702 22.4894 31.8845 26.1446 29.3035 28.8388M33.4702 18.4639H3.47021M18.4702 33.4639C22.7289 33.4639 26.5731 31.6891 29.3035 28.8388M18.4702 33.4639C14.2115 33.4639 10.3673 31.6891 7.63688 28.8388M18.4702 33.4639V3.46387M3.47021 18.4639C3.47021 14.4383 5.05597 10.7831 7.63688 8.08892M3.47021 18.4639C3.47021 22.4894 5.05597 26.1446 7.63688 28.8388M18.4702 3.46387C22.7289 3.46387 26.5731 5.23864 29.3035 8.08892M18.4702 3.46387C14.2115 3.46387 10.3673 5.23864 7.63688 8.08892M29.3035 8.08892C26.7226 10.7831 25.1369 14.4383 25.1369 18.4639C25.1369 22.4894 26.7226 26.1446 29.3035 28.8388M7.63688 8.08892C10.2178 10.7831 11.8035 14.4383 11.8035 18.4639C11.8035 22.4894 10.2178 26.1446 7.63688 28.8388" stroke="#36383F" stroke-width="2" stroke-linecap="round"/>
</svg>
