<svg width="33" height="33" viewBox="0 0 33 33" fill="none" xmlns="http://www.w3.org/2000/svg">
<path d="M13.4305 2.96746C14.6757 0.344183 18.2735 0.344178 19.5188 2.96746L21.6708 7.50116C22.1653 8.54286 23.1211 9.26489 24.2268 9.43194L29.039 10.1589C31.8234 10.5796 32.9352 14.1372 30.9204 16.1792L27.4382 19.7082C26.6382 20.519 26.2731 21.6873 26.4619 22.8322L27.284 27.8152C27.7596 30.6985 24.8489 32.8972 22.3584 31.536L18.0543 29.1833C17.0653 28.6427 15.8839 28.6427 14.8949 29.1833L10.5908 31.536C8.10036 32.8972 5.18963 30.6985 5.66526 27.8153L6.48728 22.8322C6.67615 21.6873 6.31106 20.519 5.51098 19.7082L2.02887 16.1792C0.0140601 14.1372 1.12585 10.5796 3.91025 10.1589L8.72241 9.43194C9.82809 9.26489 10.7839 8.54286 11.2784 7.50116L13.4305 2.96746Z" stroke="#151619" stroke-width="2" stroke-linejoin="round"/>
</svg>
