<svg width="97" height="97" viewBox="0 0 97 97" fill="none" xmlns="http://www.w3.org/2000/svg">
<path d="M71.0971 37.0787C70.5756 35.118 69.0327 33.5712 67.0698 33.0411C63.5206 32.0898 49.2803 32.0898 49.2803 32.0898C49.2803 32.0898 35.0472 32.0898 31.4908 33.0411C29.5351 33.564 27.9923 35.1107 27.4635 37.0787C26.5146 40.6369 26.5146 48.0657 26.5146 48.0657C26.5146 48.0657 26.5146 55.4945 27.4635 59.0528C27.985 61.0135 29.5279 62.5602 31.4908 63.0903C35.0472 64.0416 49.2803 64.0416 49.2803 64.0416C49.2803 64.0416 63.5206 64.0416 67.0698 63.0903C69.0255 62.5675 70.5683 61.0207 71.0971 59.0528C72.046 55.4945 72.046 48.0657 72.046 48.0657C72.046 48.0657 72.046 40.6369 71.0971 37.0787Z" fill="#5E616E"/>
<path d="M44.7315 54.9136L56.5598 48.0657L44.7315 41.2179V54.9136Z" fill="white"/>
</svg>
