<svg width="28" height="28" viewBox="0 0 28 28" fill="none" xmlns="http://www.w3.org/2000/svg">
<path d="M11.3242 3.58105V1M16.4863 3.58105V1M16.4863 24.2295V26.8105M11.3242 24.2295V26.8105M24.2295 11.3242H26.8105M24.2295 16.4863H26.8105M3.58105 11.3242H1M3.58105 16.4863H1M8.74316 24.2295H19.0674C21.9183 24.2295 24.2295 21.9183 24.2295 19.0674V8.74316C24.2295 5.89221 21.9183 3.58105 19.0674 3.58105H8.74316C5.89221 3.58105 3.58105 5.89221 3.58105 8.74316V19.0674C3.58105 21.9183 5.89221 24.2295 8.74316 24.2295ZM12.6147 17.7769H15.1958C16.6213 17.7769 17.7769 16.6213 17.7769 15.1958V12.6147C17.7769 11.1893 16.6213 10.0337 15.1958 10.0337H12.6147C11.1893 10.0337 10.0337 11.1893 10.0337 12.6147V15.1958C10.0337 16.6213 11.1893 17.7769 12.6147 17.7769Z" stroke="#151619" stroke-width="2" stroke-linecap="round" stroke-linejoin="round"/>
</svg>
