<svg width="97" height="97" viewBox="0 0 97 97" fill="none" xmlns="http://www.w3.org/2000/svg">
<path d="M48.0704 71.8849C34.8442 71.8849 24.0791 61.1198 24.0791 47.8936C24.0791 34.6675 34.8442 23.9023 48.0704 23.9023C61.2966 23.9023 72.0617 34.6675 72.0617 47.8936C72.0617 61.1198 61.2966 71.8849 48.0704 71.8849ZM48.0704 27.7719C36.9725 27.7719 27.9487 36.7957 27.9487 47.8936C27.9487 58.9915 36.9725 68.0154 48.0704 68.0154C59.1683 68.0154 68.1921 58.9915 68.1921 47.8936C68.1921 36.7957 59.1683 27.7719 48.0704 27.7719Z" fill="#5E616E"/>
<path d="M41.1057 45.5328C36.5706 45.5328 31.664 44.8595 26.4323 43.4974C25.3953 43.2265 24.7761 42.174 25.047 41.137C25.3179 40.0999 26.3704 39.4808 27.4074 39.7517C43.2572 43.8689 55.663 41.2608 63.2783 32.2215C63.9671 31.4089 65.1898 31.3005 66.0025 31.9893C66.8228 32.6781 66.9234 33.9009 66.2346 34.7135C60.1904 41.8877 51.6464 45.5328 41.1057 45.5328Z" fill="#5E616E"/>
<path d="M31.433 64.3084C30.9842 64.3084 30.543 64.1536 30.1793 63.844C29.3667 63.1475 29.2738 61.9247 29.9626 61.1121C41.2772 47.8859 55.9196 44.7439 70.1364 52.5062C71.0728 53.017 71.4211 54.1933 70.9103 55.1298C70.3995 56.0662 69.2232 56.4145 68.2868 55.9037C51.2142 46.5935 38.7929 56.7472 32.9035 63.6351C32.5243 64.0762 31.9825 64.3084 31.433 64.3084Z" fill="#5E616E"/>
<path d="M54.4084 70.9571C54.3388 70.9571 54.2691 70.9571 54.1995 70.9493C53.1392 70.8332 52.373 69.8813 52.4891 68.8133C53.9983 54.9758 50.4383 41.0221 41.9175 27.3239C41.3525 26.4184 41.6311 25.2266 42.5366 24.6616C43.4421 24.0967 44.6339 24.3753 45.1989 25.2808C54.1917 39.7297 57.9375 54.5192 56.3355 69.239C56.2194 70.2296 55.3836 70.9571 54.4084 70.9571Z" fill="#5E616E"/>
</svg>
