<svg width="96" height="97" viewBox="0 0 96 97" fill="none" xmlns="http://www.w3.org/2000/svg">
<path d="M38.8117 65.0419V43.4642H31.646V65.0419H38.8125H38.8117ZM35.2304 40.5186C37.7287 40.5186 39.2841 38.8617 39.2841 36.791C39.2373 34.6732 37.7287 33.0625 35.2779 33.0625C32.8254 33.0625 31.2236 34.6732 31.2236 36.7908C31.2236 38.8615 32.7784 40.5184 35.1834 40.5184H35.2298L35.2304 40.5186ZM42.7781 65.0419H49.9433V52.9932C49.9433 52.3492 49.99 51.7035 50.1793 51.2435C50.6971 49.9544 51.8761 48.6201 53.8561 48.6201C56.4483 48.6201 57.4859 50.5987 57.4859 53.4997V65.0419H64.6509V52.6699C64.6509 46.0424 61.1163 42.9583 56.4019 42.9583C52.5368 42.9583 50.8393 45.1206 49.8961 46.5932H49.9438V43.4649H42.7785C42.872 45.4892 42.7779 65.0427 42.7779 65.0427L42.7781 65.0419Z" fill="#5E616E"/>
</svg>
