<svg width="24" height="26" viewBox="0 0 24 26" fill="none" xmlns="http://www.w3.org/2000/svg">
<path d="M22.5469 19.8702L12.7458 24.2262C12.1267 24.5014 11.4201 24.5014 10.8011 24.2262L1 19.8702M22.5469 13.8849L12.7458 18.241C12.1267 18.5161 11.4201 18.5161 10.8011 18.241L1 13.8849M1.9443 7.77333L10.7028 12.1526C11.3768 12.4896 12.1701 12.4896 12.8441 12.1526L21.6026 7.77333C22.4849 7.33219 22.4849 6.07313 21.6026 5.63198L12.8441 1.25275C12.1701 0.91575 11.3768 0.915749 10.7028 1.25275L1.9443 5.63198C1.06202 6.07313 1.06201 7.33219 1.9443 7.77333Z" stroke="#151619" stroke-width="2" stroke-linecap="round" stroke-linejoin="round"/>
</svg>
