<svg width="97" height="96" viewBox="0 0 97 96" fill="none" xmlns="http://www.w3.org/2000/svg">
<path d="M67.8501 35.3537C66.5312 35.9218 65.1446 36.3174 63.7246 36.5307C64.3885 36.4168 65.3653 35.2208 65.7542 34.7367C66.3449 34.0064 66.7951 33.1728 67.0819 32.2782C67.0819 32.2117 67.1483 32.1168 67.0819 32.0693C67.0485 32.051 67.011 32.0415 66.9729 32.0415C66.9348 32.0415 66.8973 32.051 66.8638 32.0693C65.3219 32.9051 63.6809 33.5429 61.9796 33.9678C61.9203 33.9859 61.8572 33.9876 61.797 33.9725C61.7369 33.9575 61.682 33.9263 61.6382 33.8824C61.5057 33.7245 61.3632 33.5755 61.2114 33.4362C60.5175 32.814 59.7302 32.3047 58.8783 31.9269C57.7285 31.4548 56.4864 31.2503 55.246 31.3289C54.0424 31.405 52.8673 31.7281 51.7938 32.2782C50.7367 32.8581 49.8077 33.6459 49.0625 34.5943C48.2786 35.5704 47.7127 36.7033 47.4028 37.9166C47.1472 39.0707 47.1182 40.2636 47.3174 41.4288C47.3174 41.6281 47.3174 41.6566 47.1467 41.6281C40.3847 40.6314 34.8366 38.2299 30.3033 33.0755C30.1041 32.8477 29.9998 32.8477 29.8386 33.0755C27.8659 36.0751 28.8238 40.8213 31.2896 43.1659C31.6215 43.4791 31.963 43.7829 32.3233 44.0677C31.1928 43.9873 30.0898 43.6807 29.0798 43.1659C28.8902 43.0425 28.7858 43.1089 28.7764 43.3368C28.7495 43.6526 28.7495 43.9702 28.7764 44.286C28.9742 45.7996 29.5702 47.2335 30.5034 48.441C31.4365 49.6485 32.6733 50.5863 34.0874 51.1585C34.4321 51.3062 34.7912 51.4176 35.159 51.4907C34.1124 51.6969 33.039 51.729 31.9819 51.5856C31.7543 51.5382 31.669 51.6616 31.7543 51.8799C33.1484 55.6768 36.1738 56.8349 38.3931 57.4804C38.6965 57.5278 39 57.5278 39.3414 57.6038C39.3414 57.6038 39.3414 57.6038 39.2845 57.6607C38.6302 58.8568 35.9841 59.6636 34.7702 60.0813C32.5544 60.8779 30.192 61.1823 27.8469 60.9736C27.4771 60.9166 27.3917 60.9261 27.2969 60.9736C27.202 61.021 27.2969 61.1254 27.4012 61.2204C27.8754 61.5336 28.3496 61.8089 28.8427 62.0747C30.3109 62.8762 31.863 63.5129 33.4709 63.9731C41.7978 66.2703 51.1679 64.5807 57.4178 58.3632C62.3305 53.4841 64.0566 46.754 64.0566 40.0144C64.0566 39.7581 64.3695 39.6063 64.5497 39.4734C65.7926 38.5041 66.8884 37.3594 67.8027 36.0751C67.9611 35.8837 68.0422 35.6399 68.0303 35.3917V35.3917C68.0303 35.2493 68.0303 35.2777 67.8501 35.3537Z" fill="#5E616E"/>
</svg>
