<svg width="32" height="32" viewBox="0 0 32 32" fill="none" xmlns="http://www.w3.org/2000/svg">
<path d="M20.5023 30.9792C21.6934 30.9792 22.8358 30.506 23.678 29.6638C24.5202 28.8215 24.9934 27.6792 24.9934 26.4881C24.9934 25.297 24.5202 24.1547 23.678 23.3125C22.8358 22.4702 21.6934 21.9971 20.5023 21.9971H9.52424C8.33315 21.9971 7.19083 22.4702 6.3486 23.3125C5.50636 24.1547 5.0332 25.297 5.0332 26.4881C5.0332 27.6792 5.50636 28.8215 6.3486 29.6638C7.19083 30.506 8.33315 30.9792 9.52424 30.9792H20.5023Z" stroke="#151619" stroke-width="2" stroke-linecap="round"/>
<path d="M24.6491 24.7597L22.0263 18.4656C21.7234 17.7379 21.2118 17.1162 20.5561 16.6788C19.9004 16.2414 19.1299 16.008 18.3417 16.0078H11.6883C10.9001 16.008 10.1296 16.2414 9.47384 16.6788C8.81812 17.1162 8.30656 17.7379 8.00363 18.4656L5.38086 24.7597" stroke="#151619" stroke-width="2" stroke-linecap="round"/>
<path d="M27.834 20.0746C28.5779 19.6271 29.2243 19.0347 29.735 18.3327C30.2456 17.6307 30.6102 16.8333 30.8069 15.9877C31.0036 15.1422 31.0286 14.2658 30.8803 13.4104C30.7319 12.5551 30.4134 11.7382 29.9435 11.0083C29.4736 10.2784 28.8619 9.65021 28.1447 9.16109C27.4275 8.67197 26.6194 8.33183 25.7683 8.16086C24.9172 7.98988 24.0404 7.99155 23.19 8.16575C22.3395 8.33995 21.5327 8.68315 20.8174 9.17499C20.5352 7.65771 19.905 6.22654 18.9763 4.99395C18.0476 3.76137 16.8457 2.76096 15.4651 2.07134C14.0844 1.38172 12.5627 1.02169 11.0194 1.01954C9.47609 1.01739 7.95333 1.37318 6.57077 2.05896C5.18821 2.74473 3.98353 3.74179 3.0514 4.97178C2.11928 6.20178 1.4851 7.63119 1.19872 9.14768C0.912344 10.6642 0.981562 12.2264 1.40094 13.7116C1.82031 15.1968 2.57842 16.5646 3.61567 17.7073" stroke="#151619" stroke-width="2" stroke-linecap="round"/>
</svg>
