<svg width="97" height="97" viewBox="0 0 97 97" fill="none" xmlns="http://www.w3.org/2000/svg">
<path d="M61.4149 36.8827C61.1499 36.7458 60.892 36.5956 60.642 36.4329C59.9151 35.9524 59.2487 35.3861 58.657 34.7464C57.1766 33.0526 56.6237 31.3342 56.4201 30.1311H56.4283C56.2581 29.1325 56.3285 28.4863 56.3391 28.4863H49.5965V54.5589C49.5965 54.9089 49.5965 55.2549 49.5818 55.5968C49.5818 55.6393 49.5777 55.6785 49.5752 55.7244C49.5752 55.7432 49.5752 55.7628 49.5711 55.7824C49.5711 55.7873 49.5711 55.7922 49.5711 55.7971C49.5 56.7326 49.2002 57.6363 48.6979 58.4287C48.1956 59.2211 47.5062 59.8779 46.6905 60.3413C45.8404 60.825 44.8788 61.0787 43.9007 61.0774C40.7592 61.0774 38.2132 58.5158 38.2132 55.3522C38.2132 52.1886 40.7592 49.627 43.9007 49.627C44.4954 49.6265 45.0864 49.72 45.6518 49.9043L45.66 43.039C43.9436 42.8172 42.1998 42.9537 40.5387 43.4396C38.8776 43.9255 37.3353 44.7504 36.009 45.8623C34.8468 46.8721 33.8698 48.0769 33.1218 49.4225C32.8372 49.9133 31.7633 51.8852 31.6333 55.0856C31.5515 56.9021 32.097 58.7841 32.3571 59.5619V59.5782C32.5207 60.0362 33.1545 61.5992 34.1875 62.9168C35.0205 63.9738 36.0046 64.9022 37.1082 65.6723V65.6559L37.1245 65.6723C40.3887 67.8904 44.0079 67.7448 44.0079 67.7448C44.6344 67.7195 46.7331 67.7448 49.1164 66.6153C51.7598 65.3631 53.2647 63.4975 53.2647 63.4975C54.2261 62.3828 54.9906 61.1125 55.5253 59.741C56.1355 58.1371 56.3391 56.2134 56.3391 55.4446V41.6126C56.4209 41.6616 57.5103 42.3822 57.5103 42.3822C57.5103 42.3822 59.0798 43.3882 61.5286 44.0433C63.2854 44.5095 65.6524 44.6077 65.6524 44.6077V37.9141C64.823 38.0041 63.139 37.7423 61.4149 36.8827Z" fill="#5E616E"/>
</svg>
