<svg width="97" height="97" viewBox="0 0 97 97" fill="none" xmlns="http://www.w3.org/2000/svg">
<path d="M60.7679 51.526L55.0095 56.8685H49.2511L44.2125 61.5432V56.8685H37.7344V36.834H60.7679V51.526Z" fill="white"/>
<path d="M39.877 31.2236L38.1405 32.9601L35.1016 52.4959L44.2182 57.2713L45.5206 59.0078L54.2032 55.9689L63.754 48.5887L64.1881 41.6427L63.754 31.6578L62.4516 31.2236H39.877Z" fill="white"/>
<path d="M38.8269 29.8545L31.6289 36.5327V60.5741H40.2665V67.2522L47.4644 60.5741H53.2228L66.1792 48.5534V29.8545H38.8269ZM63.3 47.2177L57.5416 52.5603H51.7832L46.7446 57.235V52.5603H40.2665V32.5258H63.3V47.2177Z" fill="#5E616E"/>
<path d="M58.9817 37.2002H56.1025V45.214H58.9817V37.2002Z" fill="#5E616E"/>
<path d="M51.0657 37.2002H48.1865V45.214H51.0657V37.2002Z" fill="#5E616E"/>
</svg>
