<svg width="35" height="26" viewBox="0 0 35 26" fill="none" xmlns="http://www.w3.org/2000/svg">
<path d="M26.4955 5.33925C24.9304 3.44354 22.8185 2.077 20.4479 1.42616C18.0774 0.775314 15.5637 0.871884 13.2501 1.70268C10.9364 2.53348 8.93556 4.05803 7.52055 6.06823C6.10554 8.07843 5.34535 10.4763 5.34375 12.9346V16.196" stroke="#151619" stroke-width="2" stroke-linecap="round" stroke-linejoin="round"/>
<path d="M8.59961 21.1287C10.2408 22.8678 12.3664 24.0741 14.701 24.5915C17.0356 25.1089 19.4718 24.9136 21.6941 24.0307C23.9164 23.1479 25.8225 21.6182 27.1656 19.6398C28.5087 17.6614 29.227 15.3253 29.2274 12.934V10.7627" stroke="#151619" stroke-width="2" stroke-linecap="round" stroke-linejoin="round"/>
<path d="M1 11.8496L5.34268 16.1923L9.68537 11.8496" stroke="#151619" stroke-width="2" stroke-linecap="round" stroke-linejoin="round"/>
<path d="M33.5701 15.1054L29.2274 10.7627L24.8848 15.1054" stroke="#151619" stroke-width="2" stroke-linecap="round" stroke-linejoin="round"/>
</svg>
