<svg width="97" height="96" viewBox="0 0 97 96" fill="none" xmlns="http://www.w3.org/2000/svg">
<path d="M41.6631 48.1029C41.6631 44.4234 44.6443 41.4398 48.3227 41.4398C52.0011 41.4398 54.9838 44.4234 54.9838 48.1029C54.9838 51.7823 52.0011 54.7659 48.3227 54.7659C44.6443 54.7659 41.6631 51.7823 41.6631 48.1029ZM38.0622 48.1029C38.0622 53.7713 42.6558 58.3663 48.3227 58.3663C53.9895 58.3663 58.5831 53.7713 58.5831 48.1029C58.5831 42.4344 53.9895 37.8395 48.3227 37.8395C42.6558 37.8395 38.0622 42.4344 38.0622 48.1029ZM56.5915 37.4325C56.5913 37.9069 56.7317 38.3707 56.9951 38.7652C57.2584 39.1597 57.6327 39.4673 58.0708 39.649C58.5089 39.8307 58.991 39.8784 59.4562 39.7861C59.9213 39.6937 60.3487 39.4655 60.6841 39.1301C61.0196 38.7948 61.2482 38.3676 61.3409 37.9023C61.4336 37.4371 61.3863 36.9548 61.205 36.5165C61.0237 36.0781 60.7165 35.7034 60.3223 35.4397C59.928 35.176 59.4645 35.0351 58.9903 35.0349H58.9893C58.3536 35.0352 57.744 35.2879 57.2944 35.7374C56.8449 36.187 56.592 36.7966 56.5915 37.4325V37.4325ZM40.25 64.3723C38.3019 64.2836 37.243 63.959 36.5393 63.6847C35.6064 63.3214 34.9407 62.8887 34.2409 62.1897C33.5411 61.4906 33.1079 60.8254 32.7463 59.8922C32.4719 59.1886 32.1474 58.1291 32.0589 56.1804C31.962 54.0736 31.9427 53.4407 31.9427 48.103C31.9427 42.7654 31.9636 42.1342 32.0589 40.0256C32.1476 38.0769 32.4745 37.0195 32.7463 36.3138C33.1094 35.3807 33.542 34.7148 34.2409 34.0148C34.9398 33.3147 35.6048 32.8814 36.5393 32.5197C37.2427 32.2453 38.3019 31.9207 40.25 31.8321C42.3562 31.7352 42.989 31.7159 48.3227 31.7159C53.6564 31.7159 54.2897 31.7368 56.3977 31.8321C58.3459 31.9209 59.403 32.2479 60.1084 32.5197C61.0414 32.8814 61.707 33.3157 62.4068 34.0148C63.1067 34.7139 63.5383 35.3807 63.9015 36.3138C64.1758 37.0174 64.5003 38.0769 64.5889 40.0256C64.6857 42.1342 64.7051 42.7654 64.7051 48.103C64.7051 53.4407 64.6857 54.0718 64.5889 56.1804C64.5001 58.1291 64.174 59.1883 63.9015 59.8922C63.5383 60.8254 63.1057 61.4912 62.4068 62.1897C61.708 62.8881 61.0414 63.3214 60.1084 63.6847C59.4051 63.9591 58.3459 64.2837 56.3977 64.3723C54.2915 64.4692 53.6588 64.4885 48.3227 64.4885C42.9866 64.4885 42.3556 64.4692 40.25 64.3723V64.3723ZM40.0846 28.2363C37.9574 28.3332 36.5038 28.6706 35.2344 29.1647C33.9198 29.6749 32.8068 30.3594 31.6947 31.4701C30.5826 32.5808 29.9 33.6958 29.3899 35.0108C28.896 36.2814 28.5587 37.7346 28.4618 39.8624C28.3634 41.9935 28.3408 42.6749 28.3408 48.1029C28.3408 53.5309 28.3634 54.2122 28.4618 56.3434C28.5587 58.4713 28.896 59.9243 29.3899 61.1949C29.9 62.5091 30.5828 63.6254 31.6947 64.7356C32.8067 65.8458 33.9198 66.5294 35.2344 67.041C36.5062 67.5351 37.9574 67.8725 40.0846 67.9694C42.2162 68.0663 42.8962 68.0905 48.3227 68.0905C53.7491 68.0905 54.4302 68.0679 56.5608 67.9694C58.6881 67.8725 60.1407 67.5351 61.4109 67.041C62.7248 66.5294 63.8385 65.8463 64.9506 64.7356C66.0627 63.6249 66.7439 62.5091 67.2554 61.1949C67.7493 59.9243 68.0882 58.4712 68.1835 56.3434C68.2804 54.2106 68.3029 53.5309 68.3029 48.1029C68.3029 42.6749 68.2804 41.9935 68.1835 39.8624C68.0866 37.7344 67.7493 36.2806 67.2554 35.0108C66.7439 33.6966 66.061 32.5825 64.9506 31.4701C63.8403 30.3577 62.7248 29.6749 61.4125 29.1647C60.1407 28.6706 58.688 28.3316 56.5624 28.2363C54.4318 28.1394 53.7507 28.1152 48.3243 28.1152C42.8978 28.1152 42.2162 28.1378 40.0846 28.2363Z" fill="#5E616E"/>
<path d="M41.6631 48.1029C41.6631 44.4234 44.6443 41.4398 48.3227 41.4398C52.0011 41.4398 54.9838 44.4234 54.9838 48.1029C54.9838 51.7823 52.0011 54.7659 48.3227 54.7659C44.6443 54.7659 41.6631 51.7823 41.6631 48.1029ZM38.0622 48.1029C38.0622 53.7713 42.6558 58.3663 48.3227 58.3663C53.9895 58.3663 58.5831 53.7713 58.5831 48.1029C58.5831 42.4344 53.9895 37.8395 48.3227 37.8395C42.6558 37.8395 38.0622 42.4344 38.0622 48.1029ZM56.5915 37.4325C56.5913 37.9069 56.7317 38.3707 56.9951 38.7652C57.2584 39.1597 57.6327 39.4673 58.0708 39.649C58.5089 39.8307 58.991 39.8784 59.4562 39.7861C59.9213 39.6937 60.3487 39.4655 60.6841 39.1301C61.0196 38.7948 61.2482 38.3676 61.3409 37.9023C61.4336 37.4371 61.3863 36.9548 61.205 36.5165C61.0237 36.0781 60.7165 35.7034 60.3223 35.4397C59.928 35.176 59.4645 35.0351 58.9903 35.0349H58.9893C58.3536 35.0352 57.744 35.2879 57.2944 35.7374C56.8449 36.187 56.592 36.7966 56.5915 37.4325V37.4325ZM40.25 64.3723C38.3019 64.2836 37.243 63.959 36.5393 63.6847C35.6064 63.3214 34.9407 62.8887 34.2409 62.1897C33.5411 61.4906 33.1079 60.8254 32.7463 59.8922C32.4719 59.1886 32.1474 58.1291 32.0589 56.1804C31.962 54.0736 31.9427 53.4407 31.9427 48.103C31.9427 42.7654 31.9636 42.1342 32.0589 40.0256C32.1476 38.0769 32.4745 37.0195 32.7463 36.3138C33.1094 35.3807 33.542 34.7148 34.2409 34.0148C34.9398 33.3147 35.6048 32.8814 36.5393 32.5197C37.2427 32.2453 38.3019 31.9207 40.25 31.8321C42.3562 31.7352 42.989 31.7159 48.3227 31.7159C53.6564 31.7159 54.2897 31.7368 56.3977 31.8321C58.3459 31.9209 59.403 32.2479 60.1084 32.5197C61.0414 32.8814 61.707 33.3157 62.4068 34.0148C63.1067 34.7139 63.5383 35.3807 63.9015 36.3138C64.1758 37.0174 64.5003 38.0769 64.5889 40.0256C64.6857 42.1342 64.7051 42.7654 64.7051 48.103C64.7051 53.4407 64.6857 54.0718 64.5889 56.1804C64.5001 58.1291 64.174 59.1883 63.9015 59.8922C63.5383 60.8254 63.1057 61.4912 62.4068 62.1897C61.708 62.8881 61.0414 63.3214 60.1084 63.6847C59.4051 63.9591 58.3459 64.2837 56.3977 64.3723C54.2915 64.4692 53.6588 64.4885 48.3227 64.4885C42.9866 64.4885 42.3556 64.4692 40.25 64.3723V64.3723ZM40.0846 28.2363C37.9574 28.3332 36.5038 28.6706 35.2344 29.1647C33.9198 29.6749 32.8068 30.3594 31.6947 31.4701C30.5826 32.5808 29.9 33.6958 29.3899 35.0108C28.896 36.2814 28.5587 37.7346 28.4618 39.8624C28.3634 41.9935 28.3408 42.6749 28.3408 48.1029C28.3408 53.5309 28.3634 54.2122 28.4618 56.3434C28.5587 58.4713 28.896 59.9243 29.3899 61.1949C29.9 62.5091 30.5828 63.6254 31.6947 64.7356C32.8067 65.8458 33.9198 66.5294 35.2344 67.041C36.5062 67.5351 37.9574 67.8725 40.0846 67.9694C42.2162 68.0663 42.8962 68.0905 48.3227 68.0905C53.7491 68.0905 54.4302 68.0679 56.5608 67.9694C58.6881 67.8725 60.1407 67.5351 61.4109 67.041C62.7248 66.5294 63.8385 65.8463 64.9506 64.7356C66.0627 63.6249 66.7439 62.5091 67.2554 61.1949C67.7493 59.9243 68.0882 58.4712 68.1835 56.3434C68.2804 54.2106 68.3029 53.5309 68.3029 48.1029C68.3029 42.6749 68.2804 41.9935 68.1835 39.8624C68.0866 37.7344 67.7493 36.2806 67.2554 35.0108C66.7439 33.6966 66.061 32.5825 64.9506 31.4701C63.8403 30.3577 62.7248 29.6749 61.4125 29.1647C60.1407 28.6706 58.688 28.3316 56.5624 28.2363C54.4318 28.1394 53.7507 28.1152 48.3243 28.1152C42.8978 28.1152 42.2162 28.1378 40.0846 28.2363Z" fill="#5E616E"/>
</svg>
