<svg width="24" height="24" viewBox="0 0 24 24" fill="none" xmlns="http://www.w3.org/2000/svg">
<path d="M18.9233 8.92308C18.9233 12.7462 12.0002 22 12.0002 22C12.0002 22 5.07715 12.7462 5.07715 8.92308C5.07715 5.1 8.17715 2 12.0002 2C15.8233 2 18.9233 5.1 18.9233 8.92308Z" stroke="#151619" stroke-width="2" stroke-linecap="square"/>
<path d="M12 6.54688C11.4707 6.54688 10.9631 6.75712 10.5889 7.13137C10.2146 7.50562 10.0044 8.0132 10.0044 8.54247C10.0044 9.07173 10.2146 9.57931 10.5889 9.95356C10.9631 10.3278 11.4707 10.5381 12 10.5381C12.5292 10.5381 13.0368 10.3278 13.4111 9.95356C13.7853 9.57931 13.9956 9.07173 13.9956 8.54247C13.9956 8.0132 13.7853 7.50562 13.4111 7.13137C13.0368 6.75712 12.5292 6.54688 12 6.54688V6.54688Z" stroke="#151619" stroke-width="2" stroke-linecap="square"/>
</svg>
