<svg width="161" height="38" viewBox="0 0 161 38" fill="none" xmlns="http://www.w3.org/2000/svg">
<path d="M22.5234 0.533203H37.6489V12.6554H22.5234V0.533203Z" fill="url(#paint0_linear_5312_13025)"/>
<path d="M22.5234 24.7778H37.6489V36.9H22.5234V24.7778Z" fill="#151619"/>
<path d="M10.4023 12.6553H22.5245V24.7775H10.4023V12.6553Z" fill="#151619"/>
<path d="M22.5245 24.7778H10.4023L22.5245 36.9V24.7778Z" fill="#151619"/>
<path d="M47.9496 27.9995V7.48587H56.6728C62.8072 7.48587 66.1276 11.6224 66.1276 17.7568C66.1276 23.8912 62.7791 27.9995 56.6728 27.9995H47.9496ZM52.3393 24.257H55.9693C59.2616 24.257 61.6535 22.6249 61.6535 17.6723C61.6535 12.8324 59.3179 11.2003 55.9693 11.2003H52.3393V24.257ZM75.6564 28.2528C70.9289 28.2528 68.1431 25.1856 68.1431 20.5707C68.1431 15.7026 71.0415 12.6354 75.5157 12.6354C80.7496 12.6354 83.2259 16.3779 82.7194 21.3867H72.2233C72.1952 23.7786 73.574 25.1293 75.6564 25.1293C77.2322 25.1293 78.414 24.3695 78.7236 23.2158H82.6349C82.241 26.2549 79.4552 28.2528 75.6564 28.2528ZM75.5157 15.7589C73.6303 15.7589 72.4203 16.9126 72.2515 18.7416H78.6673C78.5547 16.7437 77.2322 15.7589 75.5157 15.7589ZM88.2756 27.9995L83.1261 12.8886H87.5721L89.8514 20.9647L90.7518 24.5665H90.8925L91.793 20.9928L94.0723 12.8886H98.5465L93.4251 27.9995H88.2756ZM105.709 27.9995C102.641 27.9995 101.853 26.5925 101.853 24.3132V16.2372H99.1521V12.9168H101.853V8.80842L105.962 8.41447V12.9168H109.001V16.2372H105.962V23.5253C105.962 24.4258 106.384 24.6509 107.172 24.6509H109.001V27.9995H105.709ZM117.783 28.2528C113.056 28.2528 110.27 25.1856 110.27 20.5707C110.27 15.7026 113.168 12.6354 117.642 12.6354C122.876 12.6354 125.353 16.3779 124.846 21.3867H114.35C114.322 23.7786 115.701 25.1293 117.783 25.1293C119.359 25.1293 120.541 24.3695 120.85 23.2158H124.762C124.368 26.2549 121.582 28.2528 117.783 28.2528ZM117.642 15.7589C115.757 15.7589 114.547 16.9126 114.378 18.7416H120.794C120.681 16.7437 119.359 15.7589 117.642 15.7589ZM134.408 28.2528C129.877 28.2528 126.923 25.1574 126.923 20.4581C126.923 15.7307 129.905 12.6354 134.548 12.6354C138.432 12.6354 141.217 14.9991 141.386 18.404H137.334C137.081 16.8282 135.927 16.0121 134.436 16.0121C132.241 16.0121 131.115 17.7568 131.115 20.4581C131.115 23.4128 132.438 24.876 134.408 24.876C136.152 24.876 137.222 23.8912 137.391 22.4279H141.414C141.246 25.9735 138.375 28.2528 134.408 28.2528ZM143.954 27.9995V7.48587H148.09V15.6463H148.259C149.075 13.6484 150.932 12.6354 153.071 12.6354C156.082 12.6354 158.389 14.3519 158.389 18.8823V27.9995H154.253V19.7828C154.253 17.2503 153.409 16.0121 151.411 16.0121C149.272 16.0121 148.09 17.7005 148.09 19.614V27.9995H143.954Z" fill="#151619"/>
<defs>
<linearGradient id="paint0_linear_5312_13025" x1="20.5573" y1="0.533203" x2="38.0292" y2="12.0801" gradientUnits="userSpaceOnUse">
<stop stop-color="#F049FF"/>
<stop offset="1" stop-color="#FFCF48"/>
</linearGradient>
</defs>
</svg>
