<svg width="187" height="37" viewBox="0 0 187 37" fill="none" xmlns="http://www.w3.org/2000/svg">
<path d="M22.5273 0H37.6528V12.1222H22.5273V0Z" fill="url(#paint0_linear_5721_26297)"/>
<path d="M37.6539 24.2442H22.5284L22.5284 12.1221H10.4062V24.2443L22.5284 36.3664H37.6539V24.2442Z" fill="#151619"/>
<path d="M47.9496 28.4663V7.95267H56.6728C62.8072 7.95267 66.1276 12.0892 66.1276 18.2236C66.1276 24.358 62.7791 28.4663 56.6728 28.4663H47.9496ZM52.3393 24.7238H55.9693C59.2616 24.7238 61.6535 23.0917 61.6535 18.1391C61.6535 13.2992 59.3179 11.6671 55.9693 11.6671H52.3393V24.7238ZM75.4888 28.7477C70.7896 28.7477 68.0882 25.6805 68.0882 21.0375C68.0882 16.1694 70.874 13.1022 75.32 13.1022C80.4414 13.1022 82.8895 16.7884 82.4111 21.8254H72.1402C72.1402 24.3298 73.4628 25.6242 75.4888 25.6242C77.0365 25.6242 78.1339 24.8645 78.4435 23.6826H82.3267C81.9609 26.7779 79.2032 28.7477 75.4888 28.7477ZM75.32 16.1975C73.5191 16.1975 72.3372 17.3231 72.1684 19.2647H78.3591C78.2746 17.2105 77.0646 16.1975 75.32 16.1975ZM87.9733 28.4663L82.8238 13.3554H87.2698L89.5491 21.4315L90.4496 25.0333H90.5903L91.4907 21.4596L93.77 13.3554H98.2442L93.1228 28.4663H87.9733ZM105.406 28.4663C102.339 28.4663 101.551 27.0593 101.551 24.78V16.704H98.8498V13.3836H101.551V9.27522L105.66 8.88127V13.3836H108.699V16.704H105.66V23.9921C105.66 24.8926 106.082 25.1177 106.87 25.1177H108.699V28.4663H105.406ZM117.368 28.7477C112.669 28.7477 109.968 25.6805 109.968 21.0375C109.968 16.1694 112.753 13.1022 117.199 13.1022C122.321 13.1022 124.769 16.7884 124.291 21.8254H114.02C114.02 24.3298 115.342 25.6242 117.368 25.6242C118.916 25.6242 120.013 24.8645 120.323 23.6826H124.206C123.84 26.7779 121.083 28.7477 117.368 28.7477ZM117.199 16.1975C115.398 16.1975 114.217 17.3231 114.048 19.2647H120.238C120.154 17.2105 118.944 16.1975 117.199 16.1975ZM133.858 28.7196C129.328 28.7196 126.373 25.6242 126.373 20.9249C126.373 16.1975 129.356 13.1022 133.999 13.1022C137.882 13.1022 140.668 15.4659 140.837 18.8708H136.785C136.531 17.295 135.378 16.4789 133.886 16.4789C131.691 16.4789 130.566 18.2236 130.566 20.9249C130.566 23.8796 131.888 25.3428 133.858 25.3428C135.603 25.3428 136.672 24.358 136.841 22.8947H140.865C140.696 26.4403 137.826 28.7196 133.858 28.7196ZM143.404 28.4663V7.95267H147.541V16.1131H147.71C148.526 14.1152 150.383 13.1022 152.521 13.1022C155.532 13.1022 157.84 14.8187 157.84 19.3491V28.4663H153.703V20.2496C153.703 17.717 152.859 16.4789 150.861 16.4789C148.723 16.4789 147.541 18.1673 147.541 20.0808V28.4663H143.404ZM165.428 28.4663L172.913 17.4919L166.244 7.95267H171.394L175.699 14.6499H175.812L180.117 7.95267H185.267L178.682 17.4638L186.167 28.4663H180.961L175.812 20.6154H175.699L170.522 28.4663H165.428Z" fill="#151619"/>
<defs>
<linearGradient id="paint0_linear_5721_26297" x1="20.5612" y1="-1.6367e-07" x2="38.0331" y2="11.5469" gradientUnits="userSpaceOnUse">
<stop stop-color="#F049FF"/>
<stop offset="1" stop-color="#FFCF48"/>
</linearGradient>
</defs>
</svg>
