<svg width="124" height="29" viewBox="0 0 124 29" fill="none" xmlns="http://www.w3.org/2000/svg">
<path d="M116.473 9.26074C119.811 9.26074 122.552 12.1259 122.552 15.8382C122.552 19.5505 119.811 22.4157 116.473 22.4157C114.654 22.4157 113.334 21.743 112.437 20.5969V27.0498H109.223V9.60955H112.437V11.0795C113.334 9.93344 114.654 9.26074 116.473 9.26074ZM115.875 19.3512C117.868 19.3512 119.338 17.931 119.338 15.8382C119.338 13.7454 117.868 12.3252 115.875 12.3252C113.907 12.3252 112.437 13.7454 112.437 15.8382C112.437 17.931 113.907 19.3512 115.875 19.3512Z" fill="#979AA6"/>
<path d="M103.066 9.60986H106.28V22.0672H103.066V20.672C102.318 21.7931 101.023 22.416 99.3534 22.416C96.7124 22.416 94.6445 20.5723 94.6445 17.2587V9.60986H97.8585V16.86C97.8585 18.5542 98.88 19.4262 100.325 19.4262C101.895 19.4262 103.066 18.5044 103.066 16.3368V9.60986Z" fill="#979AA6"/>
<path d="M92.3844 12.699H89.5691V17.8813C89.5691 19.2267 90.5407 19.2516 92.3844 19.1519V22.0669C87.8749 22.5652 86.3551 21.2448 86.3551 17.8813V12.699H84.1875V9.60963H86.3551V7.09325L89.5691 6.12158V9.60963H92.3844V12.699Z" fill="#979AA6"/>
<path d="M79.2491 11.7526C79.8969 10.0584 81.4665 9.36084 83.0362 9.36084V12.9485C81.3669 12.7492 79.2491 13.4967 79.2491 16.1127V22.0673H76.0352V9.60999H79.2491V11.7526Z" fill="#979AA6"/>
<path d="M69.9083 9.60955H73.1223V22.0669H69.9083V20.5969C69.0114 21.718 67.666 22.4157 65.8472 22.4157C62.5336 22.4157 59.793 19.5505 59.793 15.8382C59.793 12.1259 62.5336 9.26074 65.8472 9.26074C67.666 9.26074 69.0114 9.95835 69.9083 11.0795V9.60955ZM66.4452 19.3512C68.4383 19.3512 69.9083 17.931 69.9083 15.8382C69.9083 13.7454 68.4383 12.3252 66.4452 12.3252C64.4769 12.3252 63.007 13.7454 63.007 15.8382C63.007 17.931 64.4769 19.3512 66.4452 19.3512Z" fill="#979AA6"/>
<path d="M58.5641 12.699H55.7487V17.8813C55.7487 19.2267 56.7204 19.2516 58.5641 19.1519V22.0669C54.0546 22.5652 52.5348 21.2448 52.5348 17.8813V12.699H50.3672V9.60963H52.5348V7.09325L55.7487 6.12158V9.60963H58.5641V12.699Z" fill="#979AA6"/>
<path d="M43.308 13.1474C43.308 14.9911 49.736 13.845 49.736 18.4293C49.736 21.1201 47.394 22.4157 44.7282 22.4157C42.2367 22.4157 40.393 21.3692 39.4961 19.4508L42.2865 17.8812C42.6353 18.9027 43.4824 19.5006 44.7282 19.5006C45.7497 19.5006 46.4473 19.1518 46.4473 18.4293C46.4473 16.6106 40.0193 17.6071 40.0193 13.2222C40.0193 10.6809 42.1869 9.26074 44.7531 9.26074C46.7712 9.26074 48.5152 10.1826 49.4869 11.9017L46.7462 13.3966C46.3725 12.5993 45.6749 12.1259 44.7531 12.1259C43.9558 12.1259 43.308 12.4747 43.308 13.1474Z" fill="#979AA6"/>
<path d="M9.78821 17.2602L4.15952 22.9466C3.37744 23.7367 2.09919 23.7311 1.32409 22.9342C0.565766 22.1545 0.575583 20.9099 1.34611 20.1422L8.89263 12.6241C9.70979 11.81 11.031 11.8087 11.8498 12.6211L15.4201 16.1638L21.4101 10.0955H17.3385C16.279 10.0955 15.4201 9.23662 15.4201 8.17714C15.4201 7.11767 16.279 6.25879 17.3385 6.25879H26.0076C27.1658 6.25879 28.1047 7.19769 28.1047 8.35589V16.9468C28.1047 18.0495 27.2108 18.9434 26.1081 18.9434C25.0054 18.9434 24.1114 18.0495 24.1114 16.9468V12.8752L17.1647 19.7906C16.195 20.7559 14.6318 20.7696 13.6453 19.8214L10.9657 17.2456C10.6352 16.9278 10.1107 16.9344 9.78821 17.2602Z" fill="#979AA6"/>
</svg>
