<svg width="37" height="36" viewBox="0 0 37 36" fill="none" xmlns="http://www.w3.org/2000/svg">
<path d="M32.9204 30.3504C32.9204 27.2027 26.5402 24.6504 18.6704 24.6504C10.8006 24.6504 4.42041 27.2027 4.42041 30.3504V32.2504H32.9204V30.3504Z" stroke="#36383F" stroke-width="1.8" stroke-linecap="round" stroke-linejoin="round"/>
<path d="M23.2724 13.5381L22.2451 24.8317" stroke="#36383F" stroke-width="1.8" stroke-linecap="round" stroke-linejoin="round"/>
<path d="M14.2197 24.9341L20.8659 12.75" stroke="#36383F" stroke-width="1.8" stroke-linecap="round" stroke-linejoin="round"/>
<path d="M20.8672 12.7495L31.3501 16.1809C31.5084 16.234 31.6779 16.2445 31.8416 16.2114C32.0052 16.1782 32.1573 16.1026 32.2824 15.9921C32.4076 15.8816 32.5015 15.74 32.5546 15.5817C32.6077 15.4234 32.6183 15.2539 32.5851 15.0903C32.4339 13.8788 31.9161 12.7423 31.1012 11.8332C30.2862 10.9241 29.213 10.2856 28.0251 10.0034C27.0259 9.78919 25.9966 9.75403 24.9851 9.89948" stroke="#36383F" stroke-width="1.8" stroke-linecap="round" stroke-linejoin="round"/>
<path d="M20.8659 12.7496L11.3228 15.3399C11.1662 15.383 11.0012 15.3853 10.8434 15.3464C10.6857 15.3076 10.5406 15.229 10.4219 15.118C10.3032 15.0071 10.215 14.8676 10.1656 14.7129C10.1162 14.5581 10.1073 14.3933 10.1398 14.2341C10.2789 13.0048 10.7931 11.848 11.6126 10.9211C12.432 9.99426 13.517 9.34215 14.72 9.05344C16.0219 8.75906 17.3766 8.79345 18.6619 9.15351" stroke="#36383F" stroke-width="1.8" stroke-linecap="round" stroke-linejoin="round"/>
<path d="M27.0021 9.85178L30.9288 5.90485C31.038 5.79757 31.1196 5.66539 31.1665 5.51965C31.2134 5.37392 31.2242 5.21897 31.1981 5.06813C31.1719 4.91728 31.1096 4.77503 31.0163 4.6536C30.9231 4.53216 30.8018 4.43516 30.6628 4.37092C29.6343 3.87037 28.4869 3.6657 27.3488 3.77978C26.2107 3.89386 25.1267 4.3222 24.218 5.01692C23.4122 5.66408 22.8423 6.55898 22.5967 7.56292" stroke="#36383F" stroke-width="1.8" stroke-linecap="round" stroke-linejoin="round"/>
<path d="M16.3626 8.85992L13.8926 6.17965C13.7782 6.05687 13.6984 5.90589 13.6614 5.74215C13.6245 5.57841 13.6317 5.40779 13.6823 5.24775C13.733 5.08772 13.8252 4.94401 13.9496 4.83133C14.074 4.71865 14.2262 4.64104 14.3904 4.60645C15.4381 4.404 16.5027 4.30263 17.5698 4.30372C18.609 4.39877 19.6095 4.74511 20.4851 5.31288C21.3607 5.88065 22.0851 6.65283 22.5959 7.56285" stroke="#36383F" stroke-width="1.8" stroke-linecap="round" stroke-linejoin="round"/>
</svg>
